<?xml version="1.0" encoding="utf-8"?>
<!-- Generator: Adobe Illustrator 23.0.3, SVG Export Plug-In . SVG Version: 6.00 Build 0)  -->
<svg version="1.1" id="Layer_2" xmlns="http://www.w3.org/2000/svg" xmlns:xlink="http://www.w3.org/1999/xlink" x="0px" y="0px"
	 viewBox="0 0 652 185" style="enable-background:new 0 0 652 185;" xml:space="preserve">
<style type="text/css">
	.st0{fill:#231815;}
	.st1{fill:#1E1717;}
	.st2{fill:#81C5D8;}
	.st3{fill:#C2DA6E;}
	.st4{fill:#0093BB;}
</style>
<polygon class="st0" points="268.9,124.6 268.9,97.2 243.1,97.2 243.1,124.6 231.6,124.6 231.6,61.6 243.1,61.6 243.1,86.2
	268.9,86.2 268.9,61.6 280.4,61.6 280.4,124.6 "/>
<polygon class="st1" points="280.4,124.6 268.9,124.6 268.9,97.2 243.1,97.2 243.1,124.6 231.6,124.6 231.6,61.6 243.1,61.6 
	243.1,86.2 268.9,86.2 268.9,61.6 280.4,61.6 "/>
<polygon class="st0" points="292.4,124.6 292.4,61.6 335.4,61.6 335.4,72 303.8,72 303.8,86.7 331.4,86.7 331.4,97 303.8,97
	303.8,114.2 335.4,114.2 335.4,124.6 "/>
<polygon class="st1" points="335.4,124.6 292.4,124.6 292.4,61.6 335.4,61.6 335.4,72 303.8,72 303.8,86.7 331.4,86.7 331.4,97
	303.8,97 303.8,114.2 335.4,114.2 "/>
<polygon class="st0" points="381.7,124.6 367.5,101.7 353.4,124.6 341.1,124.6 360.9,92.6 341.2,61.6 353.8,61.6 367.9,83.7
	381.6,61.6 394,61.6 374.6,92.7 394.3,124.6 "/>
<polygon class="st1" points="394.3,124.6 381.7,124.6 367.5,101.7 353.4,124.6 341.1,124.6 360.9,92.6 341.2,61.6 353.8,61.6
	367.9,83.7 381.6,61.6 394,61.6 374.6,92.7 "/>
<path class="st0" d="M439.7,124.6l-4.1-12.1h-25l-4.1,12.1H395l22.1-63h12.5l22.1,63H439.7z M423.1,75.7l-9,26.6H432L423.1,75.7"/>
<path class="st1" d="M414.1,102.3L414.1,102.3H432l-9-26.6L414.1,102.3z M451.7,124.6h-12l-4.1-12.1h-25l-4.1,12.1h-11.6l22.1-63
	h12.6L451.7,124.6"/>
<g>
	<path class="st0" d="M503.3,124.6l-6.6-6.9c-1.9,3.7-7.9,8-15.8,8.1c-7.3,0.1-13.8-1.8-18.7-7c-6.6-6.8-8.2-15.3-8.2-25.6
		c0-10.3,1.3-18.5,8.2-25.3c4.8-4.8,12-7.4,18.7-7.4c7.7,0,14.4,2.9,18.7,7.2c3.1,3.2,5.4,7.2,5.8,12.7h-11.8
		c-0.2-2.5-1.4-4.2-2.7-5.8c-2.2-2.6-5.7-3.8-10-3.8c-3.7,0-7.8,1.6-10.3,4.3c-4.3,4.5-4.9,12.4-4.9,18.1c0,5.8,0.6,13.9,5,18.4
		c2.5,2.7,6.6,4,10.2,4c4.1,0,7.3-1.4,9.4-3.6c3.4-3.6,4.1-7.5,4.1-12.3h-15v-9.5h26.1v34.5h-2.2"/>
	<path class="st1" d="M480.4,125.8c-7.1,0-13.4-1.9-18.3-7c-6.6-6.8-8.2-15.3-8.2-25.6c0-10.3,1.3-18.5,8.2-25.3
		c4.8-4.8,12-7.4,18.7-7.4c7.7,0,14.4,2.9,18.7,7.2c3.1,3.2,5.4,7.2,5.8,12.7h-11.7c-0.2-2.5-1.4-4.2-2.7-5.8
		c-2.2-2.6-5.7-3.8-10-3.8c-3.7,0-7.8,1.6-10.3,4.3c-4.3,4.5-4.9,12.4-4.9,18.1c0,5.8,0.6,13.9,5,18.4c2.5,2.7,6.6,4,10.2,4
		c4.1,0,7.3-1.4,9.4-3.7c3.4-3.5,4.1-7.5,4.1-12.3h-15v-9.5h26.1v34.5h-2.1l-6.6-6.9c-1.9,3.7-7.9,8-15.8,8.1
		C480.7,125.8,480.6,125.8,480.4,125.8"/>
	<path class="st0" d="M558.9,118.7c-4.8,4.8-11.4,7.1-18.1,7.1c-6.7,0-13.3-2.3-18.1-7.1c-6.8-6.8-8-15.2-8-25.5s1.2-18.7,8-25.6
		c4.8-4.8,11.4-7.1,18.1-7.1c6.8,0,13.3,2.3,18.1,7.1c6.8,6.8,8,15.3,8,25.6C566.9,103.5,565.7,111.8,558.9,118.7 M550.7,75.1
		c-2.5-2.7-6.3-4.2-10-4.2c-3.6,0-7.5,1.5-9.9,4.2c-4.3,4.5-4.5,12.4-4.5,18.1c0,5.8,0.2,13.5,4.5,18c2.5,2.7,6.3,4.2,9.9,4.2
		c3.6,0,7.5-1.5,10-4.2c4.3-4.5,4.5-12.3,4.5-18C555.3,87.4,555.1,79.6,550.7,75.1"/>
	<path class="st1" d="M526.3,93.2L526.3,93.2c0,5.8,0.2,13.5,4.5,18c2.5,2.7,6.3,4.2,9.9,4.2c3.6,0,7.5-1.5,10-4.2
		c4.3-4.5,4.5-12.3,4.5-18c0-5.8-0.2-13.6-4.5-18.1c-2.5-2.7-6.3-4.2-10-4.2c-3.6,0-7.5,1.5-9.9,4.2
		C526.5,79.6,526.3,87.4,526.3,93.2 M540.8,125.8c-6.7,0-13.3-2.3-18.1-7.1c-6.8-6.8-8-15.2-8-25.5s1.2-18.7,8-25.6
		c4.8-4.8,11.4-7.1,18.1-7.1c6.8,0,13.3,2.3,18.1,7.1c6.8,6.8,8,15.3,8,25.6c0,10.3-1.2,18.7-8,25.5
		C554.1,123.5,547.5,125.8,540.8,125.8"/>
	<polygon class="st0" points="614.2,124.6 586.9,81.4 586.9,124.6 575.6,124.6 575.6,61.6 587.8,61.6 614.7,104.3 614.7,61.6
		626,61.6 626,124.6 	"/>
	<polygon class="st1" points="626,124.6 614.2,124.6 586.9,81.4 586.9,124.6 575.6,124.6 575.6,61.6 587.8,61.6 614.7,104.3
		614.7,61.6 626,61.6 	"/>
	<polygon class="st2" points="26,138.7 79.4,138.7 66.1,115.6 	"/>
	<polygon class="st2" points="132.8,138.7 186.2,46.2 106.1,92.5 106.1,138.7 	"/>
	<polygon class="st3" points="106.1,185 186.2,138.7 132.8,138.7 	"/>
	<polygon class="st3" points="66.1,115.6 106.1,92.5 106.1,0 52.7,92.5 	"/>
	<polygon class="st3" points="79.4,138.7 106.1,185 106.1,138.7 	"/>
	<polygon class="st2" points="26,46.2 26,138.7 52.7,92.5 	"/>
	<polygon class="st4" points="186.2,46.2 132.8,138.7 186.2,138.7 	"/>
	<polygon class="st4" points="106.1,92.5 66,115.6 79.4,138.7 106.1,138.7 	"/>
	<polygon class="st4" points="106.1,0 26,46.2 52.7,92.5 	"/>
	<path class="st0" d="M242.7,140.5h-11.9v33.8h3.4v-13.4h8.4c3.2,0,6.1-0.8,8.1-2.5c2.1-1.7,3.3-4.3,3.3-7.7c0-3.4-1.2-6-3.3-7.7
		C248.8,141.3,245.9,140.5,242.7,140.5 M242.7,157.5h-8.4v-13.7h8.4c2.3,0,4.3,0.5,5.7,1.6s2.2,2.7,2.2,5.2c0,2.4-0.8,4.1-2.2,5.2
		C247,157,245,157.5,242.7,157.5"/>
	<path class="st0" d="M271.2,140.5h-11.9v33.8h3.4v-13.4h8.4c3.2,0,6.1-0.8,8.1-2.5c2.1-1.7,3.3-4.3,3.3-7.7c0-3.4-1.2-6-3.3-7.7
		C277.3,141.3,274.5,140.5,271.2,140.5 M271.2,157.5h-8.4v-13.7h8.4c2.3,0,4.3,0.5,5.7,1.6c1.4,1.1,2.2,2.7,2.2,5.2
		c0,2.4-0.8,4.1-2.2,5.2C275.5,157,273.6,157.5,271.2,157.5"/>
	<polygon class="st0" points="315.4,140.5 303.9,168.8 292.1,140.5 287.9,140.5 287.9,174.3 291.3,174.3 291.3,147.3 302.4,173.8
		304.9,173.8 305.2,173.8 316.3,147.1 316.3,174.3 316.8,174.3 319.2,174.3 319.7,174.3 319.7,140.5 	"/>
</g>
</svg>
