<?xml version="1.0" encoding="utf-8"?>
<!-- Generator: Adobe Illustrator 25.4.1, SVG Export Plug-In . SVG Version: 6.00 Build 0)  -->
<svg version="1.1" id="Layer_1" xmlns="http://www.w3.org/2000/svg" xmlns:xlink="http://www.w3.org/1999/xlink" x="0px" y="0px"
	 viewBox="0 0 2172.3 406.6" style="enable-background:new 0 0 2172.3 406.6;" xml:space="preserve">
<style type="text/css">
	.st0{fill-rule:evenodd;clip-rule:evenodd;}
</style>
<g>
	<path class="st0" d="M1184.1,190.4c0,0-20.2-12.5-32.7-17.3c0,0-38.7-17.9-46.4-26.5c0,0-15.1-14.2-6.3-30.7
		c0,0,3.7-10.8,19.6-10.8c0,0,20.8,1.1,20.8,18.2v24.1h74.4l-0.1-35.4c0,0,5.7-58-87.6-60.6c0,0-73.4-4.8-94.4,34.7
		c0,0-8.3,8.8-8.3,39.5v22.2c0,0-0.8,25.6,12.2,42.1c0,0,7.4,10.8,25.6,22.7c0,0,37,19.9,59.2,31.3c0,0,22.4,12.8,19.5,33.1
		c0,0-1.8,20.9-23.5,20c0,0-19.8-0.9-19.8-21.4v-24h-79.2v34.9c0,0-2.2,66.8,99.6,66.8c0,0,97.3,2,101.8-68.5v-28.4
		C1218.5,256.4,1222,213.2,1184.1,190.4L1184.1,190.4z M803.4,59.6l-24.9,156.1h-5.8L748.9,61H624.7l-6.2,282.6H692l0.9-212.9h5.8
		l39,212.9H815l38.5-212.8h5.1l1.8,212.8h73.9l-8-284L803.4,59.6L803.4,59.6z M365.6,60.8l-48.9,282.5h79.2l29-219h6.5l29,219h79.2
		L490.5,60.8H365.6z M2027,186.5v41.7h20.3v44.7c0,21.9-18.7,22.3-18.7,22.3c-22.7,0-21.9-20.8-21.9-20.8V119.7
		c0-15.9,20.2-16.8,20.2-16.8c19.4,0,19.5,19,19.5,19v23.5h74.6c2.4-45.9-6.7-57-6.7-57c-18.5-41.5-88.5-39.3-88.5-39.3
		c-107.5,0-95.6,82.5-95.6,82.5v149.6c2.3,77.4,108.2,69.5,110,69.4c47.1-5.2,61.3-20.2,61.3-20.2c13.1-9.7,16.5-23.2,16.5-23.2
		c3.7-7.8,4.7-32.9,4.7-32.9v-87.9L2027,186.5L2027,186.5z M1779.9,232.5h-3.2L1701,59.7h-90.5v283.9h73.7l-4.4-172.8h3.3
		l78.4,172.8h87.8v-284h-74.6L1779.9,232.5L1779.9,232.5z M1430.7,272.9c0,0,1.1,23.3-20.5,23.3c0,0-22.7,1.2-22.7-22.7l-0.2-213.6
		h-80.8v211.9c0,0-8.3,80.2,104.9,80.2c0,0,98.4,1.2,98.4-76.5V59.9h-79L1430.7,272.9L1430.7,272.9z M211.5,190.4
		c0,0-20.2-12.5-32.7-17.3c0,0-38.7-17.9-46.4-26.5c0,0-15.1-14.2-6.2-30.7c0,0,3.7-10.8,19.6-10.8c0,0,20.8,1.1,20.8,18.2v24.1H241
		l-0.1-35.4c0,0,5.7-58-87.6-60.6c0,0-7-0.5-17.3,0.1c0,0-56.5,3-76.7,34c-0.1,0.2-0.3,0.4-0.4,0.6c0,0-8.2,8.8-8.2,39.5v22.2
		c0,0-0.9,25.6,12.2,42.1c0,0,7.4,10.8,25.6,22.7c0,0,37,19.9,59.2,31.3c0,0,22.4,12.8,19.5,33.1c0,0-1.8,20.9-23.4,20
		c0,0-19.8-0.9-19.8-21.4v-24.1H44.5v35c0,0-2.2,66.8,99.6,66.8c0,0,97.3,2,101.9-68.5v-28.4C246,256.4,249.4,213.2,211.5,190.4
		L211.5,190.4z"/>
</g>
</svg>
